<mxfile host="app.diagrams.net" agent="Mozilla/5.0 (Windows NT 10.0; Win64; x64) AppleWebKit/537.36 (KHTML, like Gecko) Chrome/130.0.0.0 Safari/537.36" version="24.8.4">
  <diagram name="Page-1" id="7yY_kA9gd9Qw0ZEYXvrO">
    <mxGraphModel dx="1105" dy="549" grid="1" gridSize="10" guides="1" tooltips="1" connect="1" arrows="1" fold="1" page="1" pageScale="1" pageWidth="850" pageHeight="1100" math="0" shadow="0">
      <root>
        <mxCell id="0" />
        <mxCell id="1" parent="0" />
        <mxCell id="ie0-aMVQ24yn6wTCqgOi-12" value="Screen_ID" style="ellipse;whiteSpace=wrap;html=1;align=center;fontStyle=4;" parent="1" vertex="1">
          <mxGeometry x="685" y="185.19" width="70" height="40" as="geometry" />
        </mxCell>
        <mxCell id="ie0-aMVQ24yn6wTCqgOi-13" value="Screen_num" style="ellipse;whiteSpace=wrap;html=1;align=center;fillColor=#f5f5f5;strokeColor=#666666;fontColor=#333333;" parent="1" vertex="1">
          <mxGeometry x="770" y="195.19" width="70" height="40" as="geometry" />
        </mxCell>
        <mxCell id="ie0-aMVQ24yn6wTCqgOi-25" value="Seat_Capacity" style="ellipse;whiteSpace=wrap;html=1;align=center;fillColor=#f5f5f5;fontColor=#333333;strokeColor=#666666;" parent="1" vertex="1">
          <mxGeometry x="590" y="195.19" width="80" height="40" as="geometry" />
        </mxCell>
        <mxCell id="ie0-aMVQ24yn6wTCqgOi-28" value="" style="endArrow=none;html=1;rounded=0;exitX=0.5;exitY=1;exitDx=0;exitDy=0;entryX=0.5;entryY=0;entryDx=0;entryDy=0;" parent="1" source="ie0-aMVQ24yn6wTCqgOi-12" target="OuSTgRVaoOre14ZgcIe2-34" edge="1">
          <mxGeometry relative="1" as="geometry">
            <mxPoint x="420" y="355.19" as="sourcePoint" />
            <mxPoint x="720" y="265.19" as="targetPoint" />
          </mxGeometry>
        </mxCell>
        <mxCell id="ie0-aMVQ24yn6wTCqgOi-32" value="" style="endArrow=none;html=1;rounded=0;entryX=0.5;entryY=1;entryDx=0;entryDy=0;exitX=1;exitY=0;exitDx=0;exitDy=0;" parent="1" source="OuSTgRVaoOre14ZgcIe2-34" target="ie0-aMVQ24yn6wTCqgOi-13" edge="1">
          <mxGeometry relative="1" as="geometry">
            <mxPoint x="800" y="275.19" as="sourcePoint" />
            <mxPoint x="580" y="355.19" as="targetPoint" />
          </mxGeometry>
        </mxCell>
        <mxCell id="ie0-aMVQ24yn6wTCqgOi-33" value="" style="endArrow=none;html=1;rounded=0;exitX=0.5;exitY=1;exitDx=0;exitDy=0;entryX=0;entryY=0;entryDx=0;entryDy=0;" parent="1" source="ie0-aMVQ24yn6wTCqgOi-25" target="OuSTgRVaoOre14ZgcIe2-34" edge="1">
          <mxGeometry relative="1" as="geometry">
            <mxPoint x="420" y="355.19" as="sourcePoint" />
            <mxPoint x="630" y="265.19" as="targetPoint" />
          </mxGeometry>
        </mxCell>
        <mxCell id="ie0-aMVQ24yn6wTCqgOi-49" value="Customer_ID" style="ellipse;whiteSpace=wrap;html=1;align=center;fontStyle=4;" parent="1" vertex="1">
          <mxGeometry x="592.5" y="830" width="75" height="40" as="geometry" />
        </mxCell>
        <mxCell id="ie0-aMVQ24yn6wTCqgOi-96" value="Duration" style="ellipse;whiteSpace=wrap;html=1;align=center;fillColor=#f5f5f5;fontColor=#333333;strokeColor=#666666;" parent="1" vertex="1">
          <mxGeometry x="235" y="230" width="70" height="40" as="geometry" />
        </mxCell>
        <mxCell id="ie0-aMVQ24yn6wTCqgOi-97" value="Rating" style="ellipse;whiteSpace=wrap;html=1;align=center;fillColor=#f5f5f5;fontColor=#333333;strokeColor=#666666;" parent="1" vertex="1">
          <mxGeometry x="40" y="220" width="70" height="40" as="geometry" />
        </mxCell>
        <mxCell id="ie0-aMVQ24yn6wTCqgOi-98" value="Movie_ID" style="ellipse;whiteSpace=wrap;html=1;align=center;fontStyle=4;" parent="1" vertex="1">
          <mxGeometry x="260" y="280" width="70" height="40" as="geometry" />
        </mxCell>
        <mxCell id="ie0-aMVQ24yn6wTCqgOi-99" value="Title" style="ellipse;whiteSpace=wrap;html=1;align=center;fillColor=#f5f5f5;strokeColor=#666666;fontColor=#333333;" parent="1" vertex="1">
          <mxGeometry x="2.5" y="270" width="75" height="40" as="geometry" />
        </mxCell>
        <mxCell id="ie0-aMVQ24yn6wTCqgOi-101" value="" style="endArrow=none;html=1;rounded=0;exitX=0;exitY=0.5;exitDx=0;exitDy=0;entryX=1;entryY=0.5;entryDx=0;entryDy=0;" parent="1" source="ie0-aMVQ24yn6wTCqgOi-98" target="OuSTgRVaoOre14ZgcIe2-38" edge="1">
          <mxGeometry relative="1" as="geometry">
            <mxPoint x="310" y="370" as="sourcePoint" />
            <mxPoint x="170" y="270" as="targetPoint" />
          </mxGeometry>
        </mxCell>
        <mxCell id="ie0-aMVQ24yn6wTCqgOi-102" value="" style="endArrow=none;html=1;rounded=0;exitX=0;exitY=1;exitDx=0;exitDy=0;entryX=0.75;entryY=0;entryDx=0;entryDy=0;" parent="1" source="ie0-aMVQ24yn6wTCqgOi-96" target="OuSTgRVaoOre14ZgcIe2-38" edge="1">
          <mxGeometry relative="1" as="geometry">
            <mxPoint x="310" y="370" as="sourcePoint" />
            <mxPoint x="200" y="260" as="targetPoint" />
          </mxGeometry>
        </mxCell>
        <mxCell id="ie0-aMVQ24yn6wTCqgOi-103" value="" style="endArrow=none;html=1;rounded=0;exitX=1;exitY=0.5;exitDx=0;exitDy=0;entryX=0;entryY=1;entryDx=0;entryDy=0;" parent="1" source="46AwzzbZPbfPcskhHzXD-44" target="OuSTgRVaoOre14ZgcIe2-38" edge="1">
          <mxGeometry relative="1" as="geometry">
            <mxPoint x="100" y="340" as="sourcePoint" />
            <mxPoint x="130" y="340" as="targetPoint" />
          </mxGeometry>
        </mxCell>
        <mxCell id="ie0-aMVQ24yn6wTCqgOi-104" value="" style="endArrow=none;html=1;rounded=0;exitX=1;exitY=0.5;exitDx=0;exitDy=0;entryX=0;entryY=0.25;entryDx=0;entryDy=0;" parent="1" source="ie0-aMVQ24yn6wTCqgOi-99" target="OuSTgRVaoOre14ZgcIe2-38" edge="1">
          <mxGeometry relative="1" as="geometry">
            <mxPoint x="310" y="370" as="sourcePoint" />
            <mxPoint x="110" y="300" as="targetPoint" />
          </mxGeometry>
        </mxCell>
        <mxCell id="ie0-aMVQ24yn6wTCqgOi-105" value="" style="endArrow=none;html=1;rounded=0;exitX=1;exitY=1;exitDx=0;exitDy=0;entryX=0.25;entryY=0;entryDx=0;entryDy=0;" parent="1" source="ie0-aMVQ24yn6wTCqgOi-97" target="OuSTgRVaoOre14ZgcIe2-38" edge="1">
          <mxGeometry relative="1" as="geometry">
            <mxPoint x="310" y="370" as="sourcePoint" />
            <mxPoint x="150" y="260" as="targetPoint" />
          </mxGeometry>
        </mxCell>
        <mxCell id="ie0-aMVQ24yn6wTCqgOi-139" value="Name" style="ellipse;whiteSpace=wrap;html=1;align=center;fillColor=#f5f5f5;fontColor=#333333;strokeColor=#666666;" parent="1" vertex="1">
          <mxGeometry x="700" y="830" width="70" height="40" as="geometry" />
        </mxCell>
        <mxCell id="ie0-aMVQ24yn6wTCqgOi-140" style="edgeStyle=orthogonalEdgeStyle;rounded=0;orthogonalLoop=1;jettySize=auto;html=1;exitX=0.5;exitY=1;exitDx=0;exitDy=0;" parent="1" edge="1">
          <mxGeometry relative="1" as="geometry">
            <mxPoint x="630" y="800" as="sourcePoint" />
            <mxPoint x="630" y="800" as="targetPoint" />
          </mxGeometry>
        </mxCell>
        <mxCell id="ie0-aMVQ24yn6wTCqgOi-141" value="" style="endArrow=none;html=1;rounded=0;entryX=0.5;entryY=0;entryDx=0;entryDy=0;exitX=0.5;exitY=1;exitDx=0;exitDy=0;" parent="1" source="OuSTgRVaoOre14ZgcIe2-52" target="ie0-aMVQ24yn6wTCqgOi-49" edge="1">
          <mxGeometry relative="1" as="geometry">
            <mxPoint x="600" y="820" as="sourcePoint" />
            <mxPoint x="637" y="866" as="targetPoint" />
          </mxGeometry>
        </mxCell>
        <mxCell id="ie0-aMVQ24yn6wTCqgOi-142" value="" style="endArrow=none;html=1;rounded=0;entryX=0;entryY=0;entryDx=0;entryDy=0;exitX=1;exitY=1;exitDx=0;exitDy=0;" parent="1" source="OuSTgRVaoOre14ZgcIe2-52" target="ie0-aMVQ24yn6wTCqgOi-139" edge="1">
          <mxGeometry relative="1" as="geometry">
            <mxPoint x="730" y="820" as="sourcePoint" />
            <mxPoint x="737" y="856" as="targetPoint" />
          </mxGeometry>
        </mxCell>
        <mxCell id="ie0-aMVQ24yn6wTCqgOi-143" value="Ticket_ID" style="ellipse;whiteSpace=wrap;html=1;align=center;fontStyle=4;" parent="1" vertex="1">
          <mxGeometry x="90" y="740" width="70" height="40" as="geometry" />
        </mxCell>
        <mxCell id="ie0-aMVQ24yn6wTCqgOi-145" value="Seat_num" style="ellipse;whiteSpace=wrap;html=1;align=center;fillColor=#f5f5f5;fontColor=#333333;strokeColor=#666666;" parent="1" vertex="1">
          <mxGeometry x="175" y="720" width="70" height="40" as="geometry" />
        </mxCell>
        <mxCell id="ie0-aMVQ24yn6wTCqgOi-146" value="Price" style="ellipse;whiteSpace=wrap;html=1;align=center;fillColor=#f5f5f5;fontColor=#333333;strokeColor=#666666;" parent="1" vertex="1">
          <mxGeometry x="5" y="610" width="70" height="40" as="geometry" />
        </mxCell>
        <mxCell id="ie0-aMVQ24yn6wTCqgOi-147" value="" style="endArrow=none;html=1;rounded=0;entryX=0.5;entryY=0;entryDx=0;entryDy=0;exitX=1;exitY=1;exitDx=0;exitDy=0;" parent="1" source="OuSTgRVaoOre14ZgcIe2-42" target="ie0-aMVQ24yn6wTCqgOi-145" edge="1">
          <mxGeometry relative="1" as="geometry">
            <mxPoint x="170" y="710" as="sourcePoint" />
            <mxPoint x="205" y="690" as="targetPoint" />
          </mxGeometry>
        </mxCell>
        <mxCell id="ie0-aMVQ24yn6wTCqgOi-149" value="" style="endArrow=none;html=1;rounded=0;exitX=1;exitY=1;exitDx=0;exitDy=0;entryX=0;entryY=0;entryDx=0;entryDy=0;" parent="1" source="ie0-aMVQ24yn6wTCqgOi-146" target="OuSTgRVaoOre14ZgcIe2-42" edge="1">
          <mxGeometry relative="1" as="geometry">
            <mxPoint x="70" y="650" as="sourcePoint" />
            <mxPoint x="50" y="670" as="targetPoint" />
          </mxGeometry>
        </mxCell>
        <mxCell id="ie0-aMVQ24yn6wTCqgOi-150" value="" style="endArrow=none;html=1;rounded=0;exitX=0.5;exitY=0;exitDx=0;exitDy=0;entryX=0.5;entryY=1;entryDx=0;entryDy=0;" parent="1" source="ie0-aMVQ24yn6wTCqgOi-143" target="OuSTgRVaoOre14ZgcIe2-42" edge="1">
          <mxGeometry relative="1" as="geometry">
            <mxPoint x="45" y="690" as="sourcePoint" />
            <mxPoint x="140" y="710" as="targetPoint" />
          </mxGeometry>
        </mxCell>
        <mxCell id="46AwzzbZPbfPcskhHzXD-2" value="Cinema_ID" style="ellipse;whiteSpace=wrap;html=1;align=center;fontStyle=4;" parent="1" vertex="1">
          <mxGeometry x="390" width="70" height="40" as="geometry" />
        </mxCell>
        <mxCell id="46AwzzbZPbfPcskhHzXD-14" value="&lt;b&gt;Show&lt;/b&gt;" style="rounded=1;arcSize=10;whiteSpace=wrap;html=1;align=center;fillColor=#dae8fc;strokeColor=#6c8ebf;" parent="1" vertex="1">
          <mxGeometry x="345" y="450" width="115" height="40" as="geometry" />
        </mxCell>
        <mxCell id="46AwzzbZPbfPcskhHzXD-15" value="Show_ID" style="ellipse;whiteSpace=wrap;html=1;align=center;fontStyle=4;" parent="1" vertex="1">
          <mxGeometry x="370" y="380" width="70" height="40" as="geometry" />
        </mxCell>
        <mxCell id="46AwzzbZPbfPcskhHzXD-17" value="Date" style="ellipse;whiteSpace=wrap;html=1;align=center;fillColor=#f5f5f5;fontColor=#333333;strokeColor=#666666;" parent="1" vertex="1">
          <mxGeometry x="290" y="390" width="70" height="40" as="geometry" />
        </mxCell>
        <mxCell id="46AwzzbZPbfPcskhHzXD-19" value="Start_time" style="ellipse;whiteSpace=wrap;html=1;align=center;fillColor=#f5f5f5;fontColor=#333333;strokeColor=#666666;" parent="1" vertex="1">
          <mxGeometry x="270" y="480" width="70" height="40" as="geometry" />
        </mxCell>
        <mxCell id="46AwzzbZPbfPcskhHzXD-20" value="" style="endArrow=none;html=1;rounded=0;exitX=1;exitY=0;exitDx=0;exitDy=0;entryX=0;entryY=0.75;entryDx=0;entryDy=0;" parent="1" source="46AwzzbZPbfPcskhHzXD-19" target="46AwzzbZPbfPcskhHzXD-14" edge="1">
          <mxGeometry relative="1" as="geometry">
            <mxPoint x="355" y="520" as="sourcePoint" />
            <mxPoint x="515" y="520" as="targetPoint" />
          </mxGeometry>
        </mxCell>
        <mxCell id="46AwzzbZPbfPcskhHzXD-23" value="" style="endArrow=none;html=1;rounded=0;exitX=1;exitY=1;exitDx=0;exitDy=0;entryX=0.25;entryY=0;entryDx=0;entryDy=0;" parent="1" source="46AwzzbZPbfPcskhHzXD-17" target="46AwzzbZPbfPcskhHzXD-14" edge="1">
          <mxGeometry relative="1" as="geometry">
            <mxPoint x="355" y="520" as="sourcePoint" />
            <mxPoint x="344" y="440" as="targetPoint" />
          </mxGeometry>
        </mxCell>
        <mxCell id="46AwzzbZPbfPcskhHzXD-24" value="" style="endArrow=none;html=1;rounded=0;exitX=0.5;exitY=0;exitDx=0;exitDy=0;entryX=0.5;entryY=1;entryDx=0;entryDy=0;" parent="1" source="46AwzzbZPbfPcskhHzXD-14" target="46AwzzbZPbfPcskhHzXD-15" edge="1">
          <mxGeometry relative="1" as="geometry">
            <mxPoint x="430" y="430" as="sourcePoint" />
            <mxPoint x="480" y="410" as="targetPoint" />
          </mxGeometry>
        </mxCell>
        <mxCell id="46AwzzbZPbfPcskhHzXD-25" value="Name" style="ellipse;whiteSpace=wrap;html=1;align=center;fillColor=#f5f5f5;fontColor=#333333;strokeColor=#666666;" parent="1" vertex="1">
          <mxGeometry x="475" y="10" width="70" height="40" as="geometry" />
        </mxCell>
        <mxCell id="46AwzzbZPbfPcskhHzXD-26" value="location" style="ellipse;whiteSpace=wrap;html=1;align=center;fillColor=#f5f5f5;fontColor=#333333;strokeColor=#666666;" parent="1" vertex="1">
          <mxGeometry x="305" y="20" width="70" height="40" as="geometry" />
        </mxCell>
        <mxCell id="46AwzzbZPbfPcskhHzXD-27" value="num_of_screen" style="ellipse;whiteSpace=wrap;html=1;align=center;fillColor=#f5f5f5;fontColor=#333333;strokeColor=#666666;" parent="1" vertex="1">
          <mxGeometry x="510" y="70" width="90" height="40" as="geometry" />
        </mxCell>
        <mxCell id="46AwzzbZPbfPcskhHzXD-28" value="Capacity" style="ellipse;whiteSpace=wrap;html=1;align=center;fillColor=#f5f5f5;fontColor=#333333;strokeColor=#666666;" parent="1" vertex="1">
          <mxGeometry x="280" y="70" width="70" height="40" as="geometry" />
        </mxCell>
        <mxCell id="46AwzzbZPbfPcskhHzXD-29" value="" style="endArrow=none;html=1;rounded=0;entryX=0;entryY=0.5;entryDx=0;entryDy=0;exitX=1;exitY=0.5;exitDx=0;exitDy=0;" parent="1" source="OuSTgRVaoOre14ZgcIe2-33" target="46AwzzbZPbfPcskhHzXD-27" edge="1">
          <mxGeometry relative="1" as="geometry">
            <mxPoint x="500" y="120" as="sourcePoint" />
            <mxPoint x="480" y="160" as="targetPoint" />
          </mxGeometry>
        </mxCell>
        <mxCell id="46AwzzbZPbfPcskhHzXD-30" value="" style="endArrow=none;html=1;rounded=0;exitX=0;exitY=1;exitDx=0;exitDy=0;entryX=1;entryY=0;entryDx=0;entryDy=0;" parent="1" source="46AwzzbZPbfPcskhHzXD-25" target="OuSTgRVaoOre14ZgcIe2-33" edge="1">
          <mxGeometry relative="1" as="geometry">
            <mxPoint x="315" y="160" as="sourcePoint" />
            <mxPoint x="490" y="80" as="targetPoint" />
          </mxGeometry>
        </mxCell>
        <mxCell id="46AwzzbZPbfPcskhHzXD-31" value="" style="endArrow=none;html=1;rounded=0;exitX=1;exitY=0.5;exitDx=0;exitDy=0;entryX=0;entryY=0.5;entryDx=0;entryDy=0;" parent="1" source="46AwzzbZPbfPcskhHzXD-28" target="OuSTgRVaoOre14ZgcIe2-33" edge="1">
          <mxGeometry relative="1" as="geometry">
            <mxPoint x="320" y="160" as="sourcePoint" />
            <mxPoint x="370" y="110" as="targetPoint" />
          </mxGeometry>
        </mxCell>
        <mxCell id="46AwzzbZPbfPcskhHzXD-32" value="" style="endArrow=none;html=1;rounded=0;exitX=1;exitY=1;exitDx=0;exitDy=0;entryX=0;entryY=0;entryDx=0;entryDy=0;" parent="1" source="46AwzzbZPbfPcskhHzXD-26" target="OuSTgRVaoOre14ZgcIe2-33" edge="1">
          <mxGeometry relative="1" as="geometry">
            <mxPoint x="320" y="160" as="sourcePoint" />
            <mxPoint x="365" y="70" as="targetPoint" />
          </mxGeometry>
        </mxCell>
        <mxCell id="46AwzzbZPbfPcskhHzXD-33" value="" style="endArrow=none;html=1;rounded=0;exitX=0.5;exitY=1;exitDx=0;exitDy=0;entryX=0.5;entryY=0;entryDx=0;entryDy=0;" parent="1" source="46AwzzbZPbfPcskhHzXD-2" target="OuSTgRVaoOre14ZgcIe2-33" edge="1">
          <mxGeometry relative="1" as="geometry">
            <mxPoint x="320" y="160" as="sourcePoint" />
            <mxPoint x="410" y="60" as="targetPoint" />
          </mxGeometry>
        </mxCell>
        <mxCell id="46AwzzbZPbfPcskhHzXD-34" value="End_time" style="ellipse;whiteSpace=wrap;html=1;align=center;fillColor=#f5f5f5;fontColor=#333333;strokeColor=#666666;" parent="1" vertex="1">
          <mxGeometry x="305" y="520" width="70" height="40" as="geometry" />
        </mxCell>
        <mxCell id="46AwzzbZPbfPcskhHzXD-35" value="" style="endArrow=none;html=1;rounded=0;exitX=0.25;exitY=1;exitDx=0;exitDy=0;entryX=1;entryY=0;entryDx=0;entryDy=0;" parent="1" source="46AwzzbZPbfPcskhHzXD-14" target="46AwzzbZPbfPcskhHzXD-34" edge="1">
          <mxGeometry relative="1" as="geometry">
            <mxPoint x="485" y="510" as="sourcePoint" />
            <mxPoint x="525" y="490" as="targetPoint" />
          </mxGeometry>
        </mxCell>
        <mxCell id="46AwzzbZPbfPcskhHzXD-36" value="Date&amp;amp;Time" style="ellipse;whiteSpace=wrap;html=1;align=center;fillColor=#f5f5f5;fontColor=#333333;strokeColor=#666666;" parent="1" vertex="1">
          <mxGeometry x="2.5" y="710" width="70" height="40" as="geometry" />
        </mxCell>
        <mxCell id="46AwzzbZPbfPcskhHzXD-37" value="" style="endArrow=none;html=1;rounded=0;exitX=1;exitY=0;exitDx=0;exitDy=0;entryX=0;entryY=1;entryDx=0;entryDy=0;" parent="1" source="46AwzzbZPbfPcskhHzXD-36" target="OuSTgRVaoOre14ZgcIe2-42" edge="1">
          <mxGeometry relative="1" as="geometry">
            <mxPoint x="40" y="790" as="sourcePoint" />
            <mxPoint x="60" y="690" as="targetPoint" />
          </mxGeometry>
        </mxCell>
        <mxCell id="46AwzzbZPbfPcskhHzXD-38" value="Lname" style="ellipse;whiteSpace=wrap;html=1;align=center;fillColor=#f5f5f5;fontColor=#333333;strokeColor=#666666;" parent="1" vertex="1">
          <mxGeometry x="670" y="880" width="60" height="40" as="geometry" />
        </mxCell>
        <mxCell id="46AwzzbZPbfPcskhHzXD-39" value="Fname" style="ellipse;whiteSpace=wrap;html=1;align=center;fillColor=#f5f5f5;fontColor=#333333;strokeColor=#666666;" parent="1" vertex="1">
          <mxGeometry x="740" y="880" width="60" height="40" as="geometry" />
        </mxCell>
        <mxCell id="46AwzzbZPbfPcskhHzXD-40" value="" style="endArrow=none;html=1;rounded=0;entryX=0.5;entryY=0;entryDx=0;entryDy=0;exitX=0;exitY=1;exitDx=0;exitDy=0;" parent="1" source="ie0-aMVQ24yn6wTCqgOi-139" target="46AwzzbZPbfPcskhHzXD-38" edge="1">
          <mxGeometry relative="1" as="geometry">
            <mxPoint x="690" y="880" as="sourcePoint" />
            <mxPoint x="688" y="910" as="targetPoint" />
          </mxGeometry>
        </mxCell>
        <mxCell id="46AwzzbZPbfPcskhHzXD-41" value="" style="endArrow=none;html=1;rounded=0;entryX=0.5;entryY=0;entryDx=0;entryDy=0;exitX=1;exitY=1;exitDx=0;exitDy=0;" parent="1" source="ie0-aMVQ24yn6wTCqgOi-139" target="46AwzzbZPbfPcskhHzXD-39" edge="1">
          <mxGeometry relative="1" as="geometry">
            <mxPoint x="750" y="890" as="sourcePoint" />
            <mxPoint x="740" y="936" as="targetPoint" />
          </mxGeometry>
        </mxCell>
        <mxCell id="46AwzzbZPbfPcskhHzXD-42" value="Phone" style="ellipse;whiteSpace=wrap;html=1;align=center;fillColor=#f5f5f5;fontColor=#333333;strokeColor=#666666;" parent="1" vertex="1">
          <mxGeometry x="720" y="760" width="60" height="40" as="geometry" />
        </mxCell>
        <mxCell id="46AwzzbZPbfPcskhHzXD-43" value="" style="endArrow=none;html=1;rounded=0;entryX=0;entryY=0.5;entryDx=0;entryDy=0;exitX=1;exitY=0.5;exitDx=0;exitDy=0;" parent="1" source="OuSTgRVaoOre14ZgcIe2-52" target="46AwzzbZPbfPcskhHzXD-42" edge="1">
          <mxGeometry relative="1" as="geometry">
            <mxPoint x="710" y="750" as="sourcePoint" />
            <mxPoint x="740" y="860" as="targetPoint" />
          </mxGeometry>
        </mxCell>
        <mxCell id="46AwzzbZPbfPcskhHzXD-44" value="Genre" style="ellipse;shape=doubleEllipse;margin=3;whiteSpace=wrap;html=1;align=center;fillColor=#f5f5f5;strokeColor=#666666;fontColor=#333333;" parent="1" vertex="1">
          <mxGeometry x="10" y="320" width="70" height="40" as="geometry" />
        </mxCell>
        <mxCell id="46AwzzbZPbfPcskhHzXD-45" value="Discount" style="ellipse;shape=doubleEllipse;margin=3;whiteSpace=wrap;html=1;align=center;fillColor=#f5f5f5;fontColor=#333333;strokeColor=#666666;" parent="1" vertex="1">
          <mxGeometry x="80" y="590" width="70" height="40" as="geometry" />
        </mxCell>
        <mxCell id="46AwzzbZPbfPcskhHzXD-46" value="" style="endArrow=none;html=1;rounded=0;exitX=0.5;exitY=1;exitDx=0;exitDy=0;entryX=0.5;entryY=0;entryDx=0;entryDy=0;" parent="1" source="46AwzzbZPbfPcskhHzXD-45" target="OuSTgRVaoOre14ZgcIe2-42" edge="1">
          <mxGeometry relative="1" as="geometry">
            <mxPoint x="200" y="610" as="sourcePoint" />
            <mxPoint x="140" y="650" as="targetPoint" />
          </mxGeometry>
        </mxCell>
        <mxCell id="46AwzzbZPbfPcskhHzXD-55" value="" style="endArrow=none;html=1;rounded=0;exitX=1;exitY=0.5;exitDx=0;exitDy=0;entryX=0;entryY=0.5;entryDx=0;entryDy=0;" parent="1" source="OuSTgRVaoOre14ZgcIe2-32" target="OuSTgRVaoOre14ZgcIe2-34" edge="1">
          <mxGeometry relative="1" as="geometry">
            <mxPoint x="510" y="310" as="sourcePoint" />
            <mxPoint x="640" y="340" as="targetPoint" />
          </mxGeometry>
        </mxCell>
        <mxCell id="46AwzzbZPbfPcskhHzXD-56" value="N" style="resizable=0;html=1;whiteSpace=wrap;align=right;verticalAlign=bottom;" parent="46AwzzbZPbfPcskhHzXD-55" connectable="0" vertex="1">
          <mxGeometry x="1" relative="1" as="geometry">
            <mxPoint x="-10" as="offset" />
          </mxGeometry>
        </mxCell>
        <mxCell id="46AwzzbZPbfPcskhHzXD-60" value="" style="endArrow=none;html=1;rounded=0;entryX=1;entryY=0.5;entryDx=0;entryDy=0;exitX=0;exitY=0.5;exitDx=0;exitDy=0;" parent="1" source="OuSTgRVaoOre14ZgcIe2-37" target="46AwzzbZPbfPcskhHzXD-14" edge="1">
          <mxGeometry relative="1" as="geometry">
            <mxPoint x="660" y="520" as="sourcePoint" />
            <mxPoint x="670" y="580" as="targetPoint" />
          </mxGeometry>
        </mxCell>
        <mxCell id="46AwzzbZPbfPcskhHzXD-61" value="N" style="resizable=0;html=1;whiteSpace=wrap;align=right;verticalAlign=bottom;" parent="46AwzzbZPbfPcskhHzXD-60" connectable="0" vertex="1">
          <mxGeometry x="1" relative="1" as="geometry">
            <mxPoint x="20" as="offset" />
          </mxGeometry>
        </mxCell>
        <mxCell id="46AwzzbZPbfPcskhHzXD-65" value="" style="endArrow=none;html=1;rounded=0;entryX=0;entryY=0.5;entryDx=0;entryDy=0;exitX=1;exitY=0.5;exitDx=0;exitDy=0;" parent="1" source="OuSTgRVaoOre14ZgcIe2-39" target="46AwzzbZPbfPcskhHzXD-14" edge="1">
          <mxGeometry relative="1" as="geometry">
            <mxPoint x="240" y="460" as="sourcePoint" />
            <mxPoint x="310" y="460" as="targetPoint" />
          </mxGeometry>
        </mxCell>
        <mxCell id="46AwzzbZPbfPcskhHzXD-66" value="N" style="resizable=0;html=1;whiteSpace=wrap;align=right;verticalAlign=bottom;" parent="46AwzzbZPbfPcskhHzXD-65" connectable="0" vertex="1">
          <mxGeometry x="1" relative="1" as="geometry">
            <mxPoint x="-10" as="offset" />
          </mxGeometry>
        </mxCell>
        <mxCell id="46AwzzbZPbfPcskhHzXD-70" value="" style="endArrow=none;html=1;rounded=0;entryX=0.5;entryY=1;entryDx=0;entryDy=0;exitX=0.5;exitY=0;exitDx=0;exitDy=0;" parent="1" source="OuSTgRVaoOre14ZgcIe2-47" target="46AwzzbZPbfPcskhHzXD-14" edge="1">
          <mxGeometry relative="1" as="geometry">
            <mxPoint x="460" y="630" as="sourcePoint" />
            <mxPoint x="400" y="690" as="targetPoint" />
          </mxGeometry>
        </mxCell>
        <mxCell id="46AwzzbZPbfPcskhHzXD-71" value="1" style="resizable=0;html=1;whiteSpace=wrap;align=right;verticalAlign=bottom;" parent="46AwzzbZPbfPcskhHzXD-70" connectable="0" vertex="1">
          <mxGeometry x="1" relative="1" as="geometry">
            <mxPoint x="-5" y="20" as="offset" />
          </mxGeometry>
        </mxCell>
        <mxCell id="ALCv4RVZvyyL87R1NzdM-1" value="" style="endArrow=none;html=1;rounded=0;edgeStyle=elbowEdgeStyle;entryX=1;entryY=0.75;entryDx=0;entryDy=0;exitX=0;exitY=0.5;exitDx=0;exitDy=0;" parent="1" source="OuSTgRVaoOre14ZgcIe2-48" target="OuSTgRVaoOre14ZgcIe2-42" edge="1">
          <mxGeometry relative="1" as="geometry">
            <mxPoint x="340" y="790" as="sourcePoint" />
            <mxPoint x="210" y="700" as="targetPoint" />
            <Array as="points">
              <mxPoint x="330" y="740" />
            </Array>
          </mxGeometry>
        </mxCell>
        <mxCell id="ALCv4RVZvyyL87R1NzdM-2" value="N" style="resizable=0;html=1;whiteSpace=wrap;align=right;verticalAlign=bottom;" parent="ALCv4RVZvyyL87R1NzdM-1" connectable="0" vertex="1">
          <mxGeometry x="1" relative="1" as="geometry">
            <mxPoint x="25" as="offset" />
          </mxGeometry>
        </mxCell>
        <mxCell id="OWeZCn-Pg7OifKyd3cgW-5" value="&lt;font style=&quot;font-size: 11px;&quot;&gt;Screen_Type&lt;/font&gt;" style="ellipse;whiteSpace=wrap;html=1;align=center;fillColor=#f5f5f5;fontColor=#333333;strokeColor=#666666;" parent="1" vertex="1">
          <mxGeometry x="452.5" y="220" width="72.5" height="40" as="geometry" />
        </mxCell>
        <mxCell id="OWeZCn-Pg7OifKyd3cgW-6" value="" style="endArrow=none;html=1;rounded=0;entryX=0;entryY=1;entryDx=0;entryDy=0;exitX=1;exitY=0;exitDx=0;exitDy=0;" parent="1" source="OuSTgRVaoOre14ZgcIe2-32" target="OWeZCn-Pg7OifKyd3cgW-5" edge="1">
          <mxGeometry relative="1" as="geometry">
            <mxPoint x="450" y="270" as="sourcePoint" />
            <mxPoint x="350" y="330" as="targetPoint" />
          </mxGeometry>
        </mxCell>
        <mxCell id="OWeZCn-Pg7OifKyd3cgW-8" value="&lt;font style=&quot;font-size: 11px;&quot;&gt;Subtitle&lt;/font&gt;" style="ellipse;whiteSpace=wrap;html=1;align=center;fillColor=#f5f5f5;fontColor=#333333;strokeColor=#666666;" parent="1" vertex="1">
          <mxGeometry x="685" y="510" width="70" height="30" as="geometry" />
        </mxCell>
        <mxCell id="OWeZCn-Pg7OifKyd3cgW-10" value="" style="endArrow=none;html=1;rounded=0;entryX=0.5;entryY=0;entryDx=0;entryDy=0;exitX=0.5;exitY=1;exitDx=0;exitDy=0;" parent="1" source="OuSTgRVaoOre14ZgcIe2-37" target="OWeZCn-Pg7OifKyd3cgW-8" edge="1">
          <mxGeometry relative="1" as="geometry">
            <mxPoint x="750" y="510" as="sourcePoint" />
            <mxPoint x="560" y="470" as="targetPoint" />
          </mxGeometry>
        </mxCell>
        <mxCell id="OWeZCn-Pg7OifKyd3cgW-12" value="&lt;font style=&quot;font-size: 10px;&quot;&gt;Show_Type&lt;/font&gt;" style="ellipse;whiteSpace=wrap;html=1;align=center;fillColor=#f5f5f5;fontColor=#333333;strokeColor=#666666;" parent="1" vertex="1">
          <mxGeometry x="30" y="450" width="70" height="40" as="geometry" />
        </mxCell>
        <mxCell id="OWeZCn-Pg7OifKyd3cgW-13" value="" style="endArrow=none;html=1;rounded=0;exitX=1;exitY=0.5;exitDx=0;exitDy=0;entryX=0;entryY=0.5;entryDx=0;entryDy=0;" parent="1" source="OWeZCn-Pg7OifKyd3cgW-12" target="OuSTgRVaoOre14ZgcIe2-39" edge="1">
          <mxGeometry relative="1" as="geometry">
            <mxPoint x="370" y="510" as="sourcePoint" />
            <mxPoint x="110" y="470" as="targetPoint" />
          </mxGeometry>
        </mxCell>
        <mxCell id="OWeZCn-Pg7OifKyd3cgW-15" value="&lt;font style=&quot;font-size: 10px;&quot;&gt;Number_of_Tickets&lt;/font&gt;" style="ellipse;whiteSpace=wrap;html=1;align=center;fillColor=#f5f5f5;fontColor=#333333;strokeColor=#666666;" parent="1" vertex="1">
          <mxGeometry x="372.5" y="830" width="95" height="40" as="geometry" />
        </mxCell>
        <mxCell id="OWeZCn-Pg7OifKyd3cgW-16" value="" style="endArrow=none;html=1;rounded=0;entryX=0.5;entryY=1;entryDx=0;entryDy=0;exitX=0.5;exitY=0;exitDx=0;exitDy=0;" parent="1" source="OWeZCn-Pg7OifKyd3cgW-15" target="OuSTgRVaoOre14ZgcIe2-48" edge="1">
          <mxGeometry relative="1" as="geometry">
            <mxPoint x="170" y="850" as="sourcePoint" />
            <mxPoint x="412.5" y="810" as="targetPoint" />
          </mxGeometry>
        </mxCell>
        <mxCell id="OuSTgRVaoOre14ZgcIe2-30" value="" style="endArrow=none;html=1;rounded=0;fontFamily=Helvetica;fontSize=12;fontColor=default;exitX=0.5;exitY=0;exitDx=0;exitDy=0;entryX=0.5;entryY=1;entryDx=0;entryDy=0;" parent="1" source="OuSTgRVaoOre14ZgcIe2-32" target="OuSTgRVaoOre14ZgcIe2-33" edge="1">
          <mxGeometry relative="1" as="geometry">
            <mxPoint x="370" y="270" as="sourcePoint" />
            <mxPoint x="430" y="130" as="targetPoint" />
          </mxGeometry>
        </mxCell>
        <mxCell id="OuSTgRVaoOre14ZgcIe2-31" value="1" style="resizable=0;html=1;whiteSpace=wrap;align=right;verticalAlign=bottom;fillStyle=auto;strokeColor=default;fontFamily=Helvetica;fontSize=12;fontColor=default;fillColor=default;gradientColor=none;" parent="OuSTgRVaoOre14ZgcIe2-30" connectable="0" vertex="1">
          <mxGeometry x="1" relative="1" as="geometry">
            <mxPoint x="-12" y="20" as="offset" />
          </mxGeometry>
        </mxCell>
        <mxCell id="OuSTgRVaoOre14ZgcIe2-32" value="&lt;b&gt;Has&lt;/b&gt;" style="shape=rhombus;perimeter=rhombusPerimeter;whiteSpace=wrap;html=1;align=center;fillStyle=auto;strokeColor=#82b366;verticalAlign=middle;fontFamily=Helvetica;fontSize=12;fillColor=#d5e8d4;" parent="1" vertex="1">
          <mxGeometry x="378" y="270" width="95" height="50" as="geometry" />
        </mxCell>
        <mxCell id="OuSTgRVaoOre14ZgcIe2-33" value="&lt;b&gt;Cinema&lt;/b&gt;" style="rounded=1;arcSize=10;whiteSpace=wrap;html=1;align=center;fillStyle=auto;strokeColor=#6c8ebf;verticalAlign=middle;fontFamily=Helvetica;fontSize=12;fillColor=#dae8fc;" parent="1" vertex="1">
          <mxGeometry x="375" y="70" width="100" height="40" as="geometry" />
        </mxCell>
        <mxCell id="OuSTgRVaoOre14ZgcIe2-34" value="&lt;b&gt;Screen&lt;/b&gt;" style="rounded=1;arcSize=10;whiteSpace=wrap;html=1;align=center;fillStyle=auto;strokeColor=#6c8ebf;verticalAlign=middle;fontFamily=Helvetica;fontSize=12;fillColor=#dae8fc;" parent="1" vertex="1">
          <mxGeometry x="670" y="275.19" width="100" height="40" as="geometry" />
        </mxCell>
        <mxCell id="OuSTgRVaoOre14ZgcIe2-35" value="" style="endArrow=none;html=1;rounded=0;fontFamily=Helvetica;fontSize=12;fontColor=default;entryX=0.5;entryY=1;entryDx=0;entryDy=0;exitX=0.5;exitY=0;exitDx=0;exitDy=0;" parent="1" source="OuSTgRVaoOre14ZgcIe2-37" target="OuSTgRVaoOre14ZgcIe2-34" edge="1">
          <mxGeometry relative="1" as="geometry">
            <mxPoint x="690" y="430" as="sourcePoint" />
            <mxPoint x="580" y="370" as="targetPoint" />
          </mxGeometry>
        </mxCell>
        <mxCell id="OuSTgRVaoOre14ZgcIe2-36" value="1" style="resizable=0;html=1;whiteSpace=wrap;align=right;verticalAlign=bottom;fillStyle=auto;strokeColor=default;fontFamily=Helvetica;fontSize=12;fontColor=default;fillColor=default;gradientColor=none;" parent="OuSTgRVaoOre14ZgcIe2-35" connectable="0" vertex="1">
          <mxGeometry x="1" relative="1" as="geometry">
            <mxPoint x="-10" y="20" as="offset" />
          </mxGeometry>
        </mxCell>
        <mxCell id="OuSTgRVaoOre14ZgcIe2-37" value="&lt;b&gt;Has&lt;/b&gt;" style="shape=rhombus;perimeter=rhombusPerimeter;whiteSpace=wrap;html=1;align=center;fillStyle=auto;strokeColor=#82b366;verticalAlign=middle;fontFamily=Helvetica;fontSize=12;fillColor=#d5e8d4;" parent="1" vertex="1">
          <mxGeometry x="670" y="445" width="100" height="50" as="geometry" />
        </mxCell>
        <mxCell id="OuSTgRVaoOre14ZgcIe2-38" value="&lt;b&gt;Movie&lt;/b&gt;" style="whiteSpace=wrap;html=1;align=center;fillStyle=auto;strokeColor=#6c8ebf;verticalAlign=middle;fontFamily=Helvetica;fontSize=12;fillColor=#dae8fc;" parent="1" vertex="1">
          <mxGeometry x="125" y="280" width="100" height="40" as="geometry" />
        </mxCell>
        <mxCell id="OuSTgRVaoOre14ZgcIe2-39" value="&lt;b&gt;Show_in&lt;/b&gt;" style="shape=rhombus;perimeter=rhombusPerimeter;whiteSpace=wrap;html=1;align=center;fillStyle=auto;strokeColor=#82b366;verticalAlign=middle;fontFamily=Helvetica;fontSize=12;fillColor=#d5e8d4;" parent="1" vertex="1">
          <mxGeometry x="127.5" y="440" width="95" height="60" as="geometry" />
        </mxCell>
        <mxCell id="OuSTgRVaoOre14ZgcIe2-40" value="" style="endArrow=none;html=1;rounded=0;fontFamily=Helvetica;fontSize=12;fontColor=default;exitX=0.5;exitY=0;exitDx=0;exitDy=0;entryX=0.5;entryY=1;entryDx=0;entryDy=0;" parent="1" source="OuSTgRVaoOre14ZgcIe2-39" target="OuSTgRVaoOre14ZgcIe2-38" edge="1">
          <mxGeometry relative="1" as="geometry">
            <mxPoint x="300" y="340" as="sourcePoint" />
            <mxPoint x="460" y="340" as="targetPoint" />
          </mxGeometry>
        </mxCell>
        <mxCell id="OuSTgRVaoOre14ZgcIe2-41" value="1" style="resizable=0;html=1;whiteSpace=wrap;align=right;verticalAlign=bottom;fillStyle=auto;strokeColor=default;fontFamily=Helvetica;fontSize=12;fontColor=default;fillColor=default;gradientColor=none;" parent="OuSTgRVaoOre14ZgcIe2-40" connectable="0" vertex="1">
          <mxGeometry x="1" relative="1" as="geometry">
            <mxPoint x="-5" y="20" as="offset" />
          </mxGeometry>
        </mxCell>
        <mxCell id="OuSTgRVaoOre14ZgcIe2-42" value="&lt;b&gt;Ticket&lt;/b&gt;" style="rounded=1;arcSize=10;whiteSpace=wrap;html=1;align=center;fillStyle=auto;strokeColor=#6c8ebf;verticalAlign=middle;fontFamily=Helvetica;fontSize=12;fillColor=#dae8fc;" parent="1" vertex="1">
          <mxGeometry x="75" y="660" width="100" height="40" as="geometry" />
        </mxCell>
        <mxCell id="OuSTgRVaoOre14ZgcIe2-45" value="" style="endArrow=none;html=1;rounded=0;fontFamily=Helvetica;fontSize=12;fontColor=default;entryX=1;entryY=0.25;entryDx=0;entryDy=0;exitX=0;exitY=0.5;exitDx=0;exitDy=0;" parent="1" source="OuSTgRVaoOre14ZgcIe2-47" target="OuSTgRVaoOre14ZgcIe2-42" edge="1">
          <mxGeometry relative="1" as="geometry">
            <mxPoint x="350" y="690" as="sourcePoint" />
            <mxPoint x="330" y="630" as="targetPoint" />
          </mxGeometry>
        </mxCell>
        <mxCell id="OuSTgRVaoOre14ZgcIe2-46" value="N" style="resizable=0;html=1;whiteSpace=wrap;align=right;verticalAlign=bottom;fillStyle=auto;strokeColor=default;fontFamily=Helvetica;fontSize=12;fontColor=default;fillColor=default;gradientColor=none;" parent="OuSTgRVaoOre14ZgcIe2-45" connectable="0" vertex="1">
          <mxGeometry x="1" relative="1" as="geometry">
            <mxPoint x="25" as="offset" />
          </mxGeometry>
        </mxCell>
        <mxCell id="OuSTgRVaoOre14ZgcIe2-47" value="Has_Ticket" style="shape=rhombus;perimeter=rhombusPerimeter;whiteSpace=wrap;html=1;align=center;fillStyle=auto;strokeColor=#82b366;verticalAlign=middle;fontFamily=Helvetica;fontSize=12;fillColor=#d5e8d4;" parent="1" vertex="1">
          <mxGeometry x="357.5" y="640" width="90" height="60" as="geometry" />
        </mxCell>
        <mxCell id="OuSTgRVaoOre14ZgcIe2-48" value="&lt;b&gt;Buy&lt;/b&gt;" style="shape=rhombus;perimeter=rhombusPerimeter;whiteSpace=wrap;html=1;align=center;fillStyle=auto;strokeColor=#82b366;verticalAlign=middle;fontFamily=Helvetica;fontSize=12;fillColor=#d5e8d4;" parent="1" vertex="1">
          <mxGeometry x="370" y="755" width="100" height="50" as="geometry" />
        </mxCell>
        <mxCell id="OuSTgRVaoOre14ZgcIe2-49" value="" style="endArrow=none;html=1;rounded=0;fontFamily=Helvetica;fontSize=12;fontColor=default;exitX=1;exitY=0.5;exitDx=0;exitDy=0;entryX=0;entryY=0.5;entryDx=0;entryDy=0;" parent="1" source="OuSTgRVaoOre14ZgcIe2-48" target="OuSTgRVaoOre14ZgcIe2-52" edge="1">
          <mxGeometry relative="1" as="geometry">
            <mxPoint x="500" y="780" as="sourcePoint" />
            <mxPoint x="560" y="800" as="targetPoint" />
          </mxGeometry>
        </mxCell>
        <mxCell id="OuSTgRVaoOre14ZgcIe2-50" value="1" style="resizable=0;html=1;whiteSpace=wrap;align=right;verticalAlign=bottom;fillStyle=auto;strokeColor=default;fontFamily=Helvetica;fontSize=12;fontColor=default;fillColor=default;gradientColor=none;" parent="OuSTgRVaoOre14ZgcIe2-49" connectable="0" vertex="1">
          <mxGeometry x="1" relative="1" as="geometry">
            <mxPoint x="-10" as="offset" />
          </mxGeometry>
        </mxCell>
        <mxCell id="OuSTgRVaoOre14ZgcIe2-52" value="&lt;b&gt;Customer&lt;/b&gt;" style="rounded=1;arcSize=10;whiteSpace=wrap;html=1;align=center;fillStyle=auto;strokeColor=#6c8ebf;verticalAlign=middle;fontFamily=Helvetica;fontSize=12;fillColor=#dae8fc;" parent="1" vertex="1">
          <mxGeometry x="580" y="760" width="100" height="40" as="geometry" />
        </mxCell>
        <mxCell id="OuSTgRVaoOre14ZgcIe2-53" value="&lt;b&gt;Movie_Detail&lt;/b&gt;" style="shape=ext;margin=3;double=1;whiteSpace=wrap;html=1;align=center;fillStyle=auto;strokeColor=#6c8ebf;verticalAlign=middle;fontFamily=Helvetica;fontSize=12;fillColor=#dae8fc;" parent="1" vertex="1">
          <mxGeometry x="80" y="60" width="95" height="30" as="geometry" />
        </mxCell>
        <mxCell id="OuSTgRVaoOre14ZgcIe2-54" value="&lt;span style=&quot;border-bottom: 1px dotted&quot;&gt;&lt;font style=&quot;font-size: 10px;&quot;&gt;Detail_ID&lt;/font&gt;&lt;/span&gt;" style="ellipse;whiteSpace=wrap;html=1;align=center;fillStyle=auto;verticalAlign=middle;fontFamily=Helvetica;fontSize=12;" parent="1" vertex="1">
          <mxGeometry x="90" y="10" width="65" height="30" as="geometry" />
        </mxCell>
        <mxCell id="OuSTgRVaoOre14ZgcIe2-56" value="&lt;font style=&quot;font-size: 10px;&quot;&gt;Synopsis&lt;/font&gt;" style="ellipse;whiteSpace=wrap;html=1;align=center;fillStyle=auto;strokeColor=#666666;verticalAlign=middle;fontFamily=Helvetica;fontSize=12;fontColor=#333333;fillColor=#f5f5f5;" parent="1" vertex="1">
          <mxGeometry x="28.75" y="20" width="52.5" height="30" as="geometry" />
        </mxCell>
        <mxCell id="OuSTgRVaoOre14ZgcIe2-57" value="&lt;font style=&quot;font-size: 10px;&quot;&gt;Language&lt;/font&gt;" style="ellipse;whiteSpace=wrap;html=1;align=center;fillStyle=auto;strokeColor=#666666;verticalAlign=middle;fontFamily=Helvetica;fontSize=12;fontColor=#333333;fillColor=#f5f5f5;" parent="1" vertex="1">
          <mxGeometry x="170" y="10" width="55" height="30" as="geometry" />
        </mxCell>
        <mxCell id="OuSTgRVaoOre14ZgcIe2-58" value="&lt;font style=&quot;font-size: 10px;&quot;&gt;Release_Date&lt;/font&gt;" style="ellipse;whiteSpace=wrap;html=1;align=center;fillStyle=auto;strokeColor=#666666;verticalAlign=middle;fontFamily=Helvetica;fontSize=12;fontColor=#333333;fillColor=#f5f5f5;" parent="1" vertex="1">
          <mxGeometry x="190" y="50" width="70" height="30" as="geometry" />
        </mxCell>
        <mxCell id="OuSTgRVaoOre14ZgcIe2-59" value="&lt;font style=&quot;font-size: 10px;&quot;&gt;Director&lt;/font&gt;" style="ellipse;whiteSpace=wrap;html=1;align=center;fillStyle=auto;strokeColor=#666666;verticalAlign=middle;fontFamily=Helvetica;fontSize=12;fontColor=#333333;fillColor=#f5f5f5;" parent="1" vertex="1">
          <mxGeometry x="10" y="60" width="50" height="30" as="geometry" />
        </mxCell>
        <mxCell id="OuSTgRVaoOre14ZgcIe2-60" value="&lt;font style=&quot;font-size: 10px;&quot;&gt;Cast&lt;/font&gt;" style="ellipse;whiteSpace=wrap;html=1;align=center;fillStyle=auto;strokeColor=#666666;verticalAlign=middle;fontFamily=Helvetica;fontSize=12;fontColor=#333333;fillColor=#f5f5f5;" parent="1" vertex="1">
          <mxGeometry x="20" y="100" width="45" height="30" as="geometry" />
        </mxCell>
        <mxCell id="OuSTgRVaoOre14ZgcIe2-61" value="" style="endArrow=none;html=1;rounded=0;fontFamily=Helvetica;fontSize=12;fontColor=default;exitX=1;exitY=0;exitDx=0;exitDy=0;entryX=0;entryY=1;entryDx=0;entryDy=0;" parent="1" source="OuSTgRVaoOre14ZgcIe2-60" target="OuSTgRVaoOre14ZgcIe2-53" edge="1">
          <mxGeometry relative="1" as="geometry">
            <mxPoint x="60" y="110" as="sourcePoint" />
            <mxPoint x="220" y="110" as="targetPoint" />
          </mxGeometry>
        </mxCell>
        <mxCell id="OuSTgRVaoOre14ZgcIe2-62" value="" style="endArrow=none;html=1;rounded=0;fontFamily=Helvetica;fontSize=12;fontColor=default;exitX=0;exitY=1;exitDx=0;exitDy=0;entryX=0.75;entryY=0;entryDx=0;entryDy=0;" parent="1" source="OuSTgRVaoOre14ZgcIe2-57" target="OuSTgRVaoOre14ZgcIe2-53" edge="1">
          <mxGeometry relative="1" as="geometry">
            <mxPoint x="60" y="110" as="sourcePoint" />
            <mxPoint x="220" y="110" as="targetPoint" />
          </mxGeometry>
        </mxCell>
        <mxCell id="OuSTgRVaoOre14ZgcIe2-63" value="" style="endArrow=none;html=1;rounded=0;fontFamily=Helvetica;fontSize=12;fontColor=default;exitX=1;exitY=0.5;exitDx=0;exitDy=0;entryX=0;entryY=0.5;entryDx=0;entryDy=0;" parent="1" source="OuSTgRVaoOre14ZgcIe2-59" target="OuSTgRVaoOre14ZgcIe2-53" edge="1">
          <mxGeometry relative="1" as="geometry">
            <mxPoint x="60" y="110" as="sourcePoint" />
            <mxPoint x="220" y="110" as="targetPoint" />
          </mxGeometry>
        </mxCell>
        <mxCell id="OuSTgRVaoOre14ZgcIe2-64" value="" style="endArrow=none;html=1;rounded=0;fontFamily=Helvetica;fontSize=12;fontColor=default;exitX=1;exitY=1;exitDx=0;exitDy=0;entryX=0.25;entryY=0;entryDx=0;entryDy=0;" parent="1" source="OuSTgRVaoOre14ZgcIe2-56" target="OuSTgRVaoOre14ZgcIe2-53" edge="1">
          <mxGeometry relative="1" as="geometry">
            <mxPoint x="60" y="110" as="sourcePoint" />
            <mxPoint x="220" y="110" as="targetPoint" />
          </mxGeometry>
        </mxCell>
        <mxCell id="OuSTgRVaoOre14ZgcIe2-65" value="" style="endArrow=none;html=1;rounded=0;fontFamily=Helvetica;fontSize=12;fontColor=default;entryX=0;entryY=0.5;entryDx=0;entryDy=0;exitX=1;exitY=0.25;exitDx=0;exitDy=0;" parent="1" source="OuSTgRVaoOre14ZgcIe2-53" target="OuSTgRVaoOre14ZgcIe2-58" edge="1">
          <mxGeometry relative="1" as="geometry">
            <mxPoint x="60" y="110" as="sourcePoint" />
            <mxPoint x="220" y="110" as="targetPoint" />
          </mxGeometry>
        </mxCell>
        <mxCell id="OuSTgRVaoOre14ZgcIe2-66" value="" style="endArrow=none;html=1;rounded=0;fontFamily=Helvetica;fontSize=12;fontColor=default;exitX=0.5;exitY=1;exitDx=0;exitDy=0;entryX=0.5;entryY=0;entryDx=0;entryDy=0;" parent="1" source="OuSTgRVaoOre14ZgcIe2-54" target="OuSTgRVaoOre14ZgcIe2-53" edge="1">
          <mxGeometry relative="1" as="geometry">
            <mxPoint x="60" y="110" as="sourcePoint" />
            <mxPoint x="220" y="110" as="targetPoint" />
          </mxGeometry>
        </mxCell>
        <mxCell id="OuSTgRVaoOre14ZgcIe2-67" value="&lt;font style=&quot;font-size: 10px;&quot;&gt;&lt;b&gt;Has_Detail&lt;/b&gt;&lt;/font&gt;" style="shape=rhombus;double=1;perimeter=rhombusPerimeter;whiteSpace=wrap;html=1;align=center;fillStyle=auto;strokeColor=#82b366;verticalAlign=middle;fontFamily=Helvetica;fontSize=12;fillColor=#d5e8d4;" parent="1" vertex="1">
          <mxGeometry x="137.5" y="150" width="75" height="50" as="geometry" />
        </mxCell>
        <mxCell id="OuSTgRVaoOre14ZgcIe2-70" value="" style="shape=link;html=1;rounded=0;fontFamily=Helvetica;fontSize=12;fontColor=default;entryX=0.5;entryY=1;entryDx=0;entryDy=0;exitX=0.5;exitY=0;exitDx=0;exitDy=0;edgeStyle=elbowEdgeStyle;elbow=vertical;" parent="1" source="OuSTgRVaoOre14ZgcIe2-67" target="OuSTgRVaoOre14ZgcIe2-53" edge="1">
          <mxGeometry relative="1" as="geometry">
            <mxPoint x="160" y="220" as="sourcePoint" />
            <mxPoint x="320" y="220" as="targetPoint" />
          </mxGeometry>
        </mxCell>
        <mxCell id="OuSTgRVaoOre14ZgcIe2-71" value="1" style="resizable=0;html=1;whiteSpace=wrap;align=right;verticalAlign=bottom;fillStyle=auto;strokeColor=default;fontFamily=Helvetica;fontSize=12;fontColor=default;fillColor=default;gradientColor=none;" parent="OuSTgRVaoOre14ZgcIe2-70" connectable="0" vertex="1">
          <mxGeometry x="1" relative="1" as="geometry">
            <mxPoint x="-12" y="20" as="offset" />
          </mxGeometry>
        </mxCell>
        <mxCell id="OuSTgRVaoOre14ZgcIe2-72" value="" style="endArrow=none;html=1;rounded=0;fontFamily=Helvetica;fontSize=12;fontColor=default;exitX=0.5;exitY=1;exitDx=0;exitDy=0;entryX=0.5;entryY=0;entryDx=0;entryDy=0;" parent="1" source="OuSTgRVaoOre14ZgcIe2-67" target="OuSTgRVaoOre14ZgcIe2-38" edge="1">
          <mxGeometry relative="1" as="geometry">
            <mxPoint x="160" y="220" as="sourcePoint" />
            <mxPoint x="190" y="230" as="targetPoint" />
          </mxGeometry>
        </mxCell>
        <mxCell id="OuSTgRVaoOre14ZgcIe2-73" value="1" style="resizable=0;html=1;whiteSpace=wrap;align=right;verticalAlign=bottom;fillStyle=auto;strokeColor=default;fontFamily=Helvetica;fontSize=12;fontColor=default;fillColor=default;gradientColor=none;" parent="OuSTgRVaoOre14ZgcIe2-72" connectable="0" vertex="1">
          <mxGeometry x="1" relative="1" as="geometry">
            <mxPoint x="-5" y="-10" as="offset" />
          </mxGeometry>
        </mxCell>
        <mxCell id="OuSTgRVaoOre14ZgcIe2-74" value="Total_Income" style="ellipse;whiteSpace=wrap;html=1;align=center;dashed=1;fillStyle=auto;strokeColor=#9673a6;verticalAlign=middle;fontFamily=Helvetica;fontSize=12;fillColor=#e1d5e7;" parent="1" vertex="1">
          <mxGeometry x="460" y="390" width="80" height="40" as="geometry" />
        </mxCell>
        <mxCell id="OuSTgRVaoOre14ZgcIe2-75" value="" style="endArrow=none;html=1;rounded=0;fontFamily=Helvetica;fontSize=12;fontColor=default;entryX=0;entryY=1;entryDx=0;entryDy=0;exitX=1;exitY=0;exitDx=0;exitDy=0;" parent="1" source="46AwzzbZPbfPcskhHzXD-14" target="OuSTgRVaoOre14ZgcIe2-74" edge="1">
          <mxGeometry relative="1" as="geometry">
            <mxPoint x="300" y="520" as="sourcePoint" />
            <mxPoint x="460" y="520" as="targetPoint" />
          </mxGeometry>
        </mxCell>
        <mxCell id="OuSTgRVaoOre14ZgcIe2-76" value="Sold_Tickets" style="ellipse;whiteSpace=wrap;html=1;align=center;fillColor=#f5f5f5;fontColor=#333333;strokeColor=#666666;" parent="1" vertex="1">
          <mxGeometry x="475" y="490" width="70" height="40" as="geometry" />
        </mxCell>
        <mxCell id="OuSTgRVaoOre14ZgcIe2-78" value="" style="endArrow=none;html=1;rounded=0;fontFamily=Helvetica;fontSize=12;fontColor=default;entryX=1;entryY=1;entryDx=0;entryDy=0;exitX=0;exitY=0;exitDx=0;exitDy=0;" parent="1" source="OuSTgRVaoOre14ZgcIe2-76" target="46AwzzbZPbfPcskhHzXD-14" edge="1">
          <mxGeometry relative="1" as="geometry">
            <mxPoint x="300" y="530" as="sourcePoint" />
            <mxPoint x="460" y="530" as="targetPoint" />
          </mxGeometry>
        </mxCell>
        <mxCell id="OuSTgRVaoOre14ZgcIe2-87" style="edgeStyle=orthogonalEdgeStyle;rounded=0;orthogonalLoop=1;jettySize=auto;html=1;exitX=0.13;exitY=0.77;exitDx=0;exitDy=0;exitPerimeter=0;entryX=0.5;entryY=0;entryDx=0;entryDy=0;fontFamily=Helvetica;fontSize=12;fontColor=default;" parent="1" source="OuSTgRVaoOre14ZgcIe2-79" target="OuSTgRVaoOre14ZgcIe2-74" edge="1">
          <mxGeometry relative="1" as="geometry" />
        </mxCell>
        <mxCell id="OuSTgRVaoOre14ZgcIe2-79" value="&lt;font style=&quot;font-size: 10px;&quot;&gt;Price(from Ticket) * Sold_Tickets&lt;/font&gt;" style="ellipse;shape=cloud;whiteSpace=wrap;html=1;align=center;fillStyle=auto;strokeColor=#23445d;verticalAlign=middle;fontFamily=Helvetica;fontSize=12;fillColor=#bac8d3;" parent="1" vertex="1">
          <mxGeometry x="490" y="320" width="210" height="60" as="geometry" />
        </mxCell>
        <mxCell id="OuSTgRVaoOre14ZgcIe2-81" value="Available_Seats" style="ellipse;whiteSpace=wrap;html=1;align=center;dashed=1;fillStyle=auto;strokeColor=#9673a6;verticalAlign=middle;fontFamily=Helvetica;fontSize=12;fillColor=#e1d5e7;" parent="1" vertex="1">
          <mxGeometry x="430" y="540" width="100" height="40" as="geometry" />
        </mxCell>
        <mxCell id="OuSTgRVaoOre14ZgcIe2-82" value="" style="endArrow=none;html=1;rounded=0;fontFamily=Helvetica;fontSize=12;fontColor=default;exitX=0.75;exitY=1;exitDx=0;exitDy=0;entryX=0.5;entryY=0;entryDx=0;entryDy=0;" parent="1" source="46AwzzbZPbfPcskhHzXD-14" target="OuSTgRVaoOre14ZgcIe2-81" edge="1">
          <mxGeometry relative="1" as="geometry">
            <mxPoint x="390" y="450" as="sourcePoint" />
            <mxPoint x="550" y="450" as="targetPoint" />
          </mxGeometry>
        </mxCell>
        <mxCell id="OuSTgRVaoOre14ZgcIe2-84" style="edgeStyle=orthogonalEdgeStyle;rounded=0;orthogonalLoop=1;jettySize=auto;html=1;exitX=0.4;exitY=0.1;exitDx=0;exitDy=0;exitPerimeter=0;entryX=1;entryY=0.5;entryDx=0;entryDy=0;fontFamily=Helvetica;fontSize=12;fontColor=default;" parent="1" source="OuSTgRVaoOre14ZgcIe2-83" target="OuSTgRVaoOre14ZgcIe2-81" edge="1">
          <mxGeometry relative="1" as="geometry" />
        </mxCell>
        <mxCell id="OuSTgRVaoOre14ZgcIe2-83" value="&lt;span style=&quot;font-size: 10px;&quot;&gt;Seat_Capacity(from Screen) - Sold_Tickets&lt;/span&gt;" style="ellipse;shape=cloud;whiteSpace=wrap;html=1;align=center;fillStyle=auto;verticalAlign=middle;fontFamily=Helvetica;fontSize=12;fillColor=#bac8d3;strokeColor=#23445d;" parent="1" vertex="1">
          <mxGeometry x="480" y="580" width="280" height="60" as="geometry" />
        </mxCell>
      </root>
    </mxGraphModel>
  </diagram>
</mxfile>
